HIERARCHY
ROOT Hips
{
 OFFSET 0.000000 0.000000 0.000000
 CHANNELS 6 Xposition Yposition Zposition Yrotation Xrotation Zrotation
 JOINT Chest
 {
  OFFSET 0.000000 9.585900 0.002600
  CHANNELS 3 Yrotation Xrotation Zrotation
  JOINT Chest2
  {
   OFFSET 0.000000 9.601200 -0.005300
   CHANNELS 3 Yrotation Xrotation Zrotation
   JOINT Chest3
   {
    OFFSET 0.000000 9.561800 0.000000
    CHANNELS 3 Yrotation Xrotation Zrotation
    JOINT Chest4
    {
     OFFSET 0.000000 9.552100 0.000000
     CHANNELS 3 Yrotation Xrotation Zrotation
     JOINT Neck
     {
      OFFSET 0.000000 14.453000 0.000000
      CHANNELS 3 Yrotation Xrotation Zrotation
      JOINT Head
      {
       OFFSET 0.000000 8.936500 -0.011300
       CHANNELS 3 Yrotation Xrotation Zrotation
       End Site
       {
        OFFSET 0.000000 17.073600 -0.006000
       }
      }
     }
     JOINT RightCollar
     {
      OFFSET -2.921100 9.558500 0.000000
      CHANNELS 3 Yrotation Xrotation Zrotation
      JOINT RightShoulder
      {
       OFFSET -13.519700 0.000000 0.000000
       CHANNELS 3 Yrotation Xrotation Zrotation
       JOINT RightElbow
       {
        OFFSET 0.000000 -29.696600 0.000000
        CHANNELS 3 Yrotation Xrotation Zrotation
        JOINT RightWrist
        {
         OFFSET 0.000000 -24.004700 0.000000
         CHANNELS 3 Yrotation Xrotation Zrotation
         End Site
         {
          OFFSET 0.000000 -17.728500 0.000000
         }
        }
       }
      }
     }
     JOINT LeftCollar
     {
      OFFSET 2.921100 9.558500 0.000000
      CHANNELS 3 Yrotation Xrotation Zrotation
      JOINT LeftShoulder
      {
       OFFSET 13.519700 0.000000 0.000000
       CHANNELS 3 Yrotation Xrotation Zrotation
       JOINT LeftElbow
       {
        OFFSET 0.000000 -29.696600 0.000000
        CHANNELS 3 Yrotation Xrotation Zrotation
        JOINT LeftWrist
        {
         OFFSET 0.000000 -24.004700 0.000000
         CHANNELS 3 Yrotation Xrotation Zrotation
         End Site
         {
          OFFSET 0.000000 -17.728500 0.000000
         }
        }
       }
      }
     }
    }
   }
  }
 }
 JOINT RightHip
 {
  OFFSET -7.771700 -0.012900 -0.001300
  CHANNELS 3 Yrotation Xrotation Zrotation
  JOINT RightKnee
  {
   OFFSET 0.000000 -40.869800 0.001200
   CHANNELS 3 Yrotation Xrotation Zrotation
   JOINT RightAnkle
   {
    OFFSET 0.000000 -39.717900 0.002100
    CHANNELS 3 Yrotation Xrotation Zrotation
    JOINT RightToe
    {
     OFFSET 0.000000 -4.965400 11.033500
     CHANNELS 3 Yrotation Xrotation Zrotation
     End Site
     {
      OFFSET 0.000000 -1.423100 5.872300
     }
    }
   }
  }
 }
 JOINT LeftHip
 {
  OFFSET 7.771700 -0.012900 -0.001300
  CHANNELS 3 Yrotation Xrotation Zrotation
  JOINT LeftKnee
  {
   OFFSET 0.000000 -40.869800 0.001200
   CHANNELS 3 Yrotation Xrotation Zrotation
   JOINT LeftAnkle
   {
    OFFSET 0.000000 -39.717900 0.002100
    CHANNELS 3 Yrotation Xrotation Zrotation
    JOINT LeftToe
    {
     OFFSET 0.000000 -4.965400 11.033500
     CHANNELS 3 Yrotation Xrotation Zrotation
     End Site
     {
      OFFSET 0.000000 -1.423100 5.872300
     }
    }
   }
  }
 }
}
MOTION
Frames: 11
Frame Time: 0.008333
-66.573841 63.044909 11.954659 163.614586 -49.711898 -2.351081 7.432445 25.797047 4.029563 1.163336 4.423782 0.272490 1.858174 6.955841 0.482248 6.015680 21.081233 2.242033 1.236694 16.561810 -0.643417 2.517301 -5.014649 -1.624491 7.013030 3.241939 5.262850 -2.997074 -13.625343 -14.290950 -93.125142 -53.901319 136.196086 19.195812 6.392554 11.566926 -8.936968 0.793309 0.181100 0.966752 -8.211396 18.573345 127.175046 -64.957860 -158.161745 2.502814 0.104050 -11.520921 -5.234915 -10.752782 10.049318 -26.557526 74.555742 -24.065463 1.331687 -13.350553 -2.692537 -0.351202 0.777966 -0.164571 -2.684986 -17.505325 1.217340 12.478313 63.530572 5.923799 -3.005708 -7.698336 0.611545 -0.249903 -0.586678 -0.111957
-66.575259 63.046936 11.958035 163.618571 -49.719269 -2.360479 7.433429 25.797218 4.038315 1.160202 4.379625 0.277520 1.858653 6.985707 0.480839 6.010561 21.073391 2.244758 1.303751 16.535000 -0.628239 2.636925 -5.063132 -1.620377 7.024641 3.257294 5.258741 -3.062181 -13.760373 -14.288608 -92.957769 -53.192429 136.369570 18.919633 6.247007 11.323392 -8.943494 0.750571 0.170273 1.041303 -8.319723 18.530446 124.880264 -64.035240 -156.582012 2.966002 -0.034438 -12.079683 -5.232553 -10.742309 10.053509 -26.517460 74.550263 -24.022695 1.328146 -13.347181 -2.689694 -0.354501 0.781300 -0.166329 -2.688934 -17.496071 1.222893 12.476192 63.525038 5.922671 -3.004239 -7.697397 0.611772 -0.251841 -0.590376 -0.113212
-66.576286 63.049463 11.960563 163.624025 -49.729936 -2.370783 7.431670 25.784526 4.048181 1.157128 4.385734 0.275888 1.861286 6.995495 0.481561 6.004848 21.060954 2.245115 1.375587 16.492634 -0.612406 2.769774 -5.130557 -1.615758 7.060922 3.224569 5.253003 -3.158090 -13.861990 -14.286972 -92.870787 -52.537325 136.593189 18.595596 6.070350 11.019077 -8.951864 0.696001 0.158769 1.110654 -8.431429 18.491511 122.573677 -63.095531 -155.029064 3.386014 -0.168532 -12.604398 -5.231175 -10.728363 10.058669 -26.496245 74.541077 -23.999832 1.327583 -13.338760 -2.686619 -0.356220 0.780059 -0.166006 -2.694367 -17.482126 1.222850 12.481037 63.516063 5.931609 -2.989586 -7.697181 0.608721 -0.252933 -0.592523 -0.113605
-66.577217 63.052782 11.961815 163.622303 -49.746751 -2.372906 7.424691 25.761200 4.045213 1.163561 4.420539 0.280758 1.855689 6.978583 0.481349 6.009885 21.077319 2.246763 1.451877 16.431258 -0.596416 2.917314 -5.212985 -1.609546 7.112109 3.151888 5.239716 -3.276481 -13.941360 -14.279269 -92.855469 -51.929330 136.853888 18.230433 5.874665 10.655443 -8.957177 0.664302 0.153259 1.172615 -8.587068 18.449295 120.288055 -62.158589 -153.543502 3.761307 -0.316625 -13.075168 -5.224449 -10.707974 10.062176 -26.482411 74.533027 -23.987080 1.327624 -13.334360 -2.681273 -0.357577 0.780169 -0.166214 -2.688174 -17.462858 1.214983 12.509779 63.508353 5.971226 -2.986146 -7.692981 0.603958 -0.260515 -0.600234 -0.115360
-66.577386 63.055865 11.962767 163.619917 -49.762679 -2.377472 7.428925 25.755409 4.050424 1.159997 4.420845 0.279477 1.853813 6.961753 0.478757 6.009933 21.092630 2.250731 1.546219 16.379620 -0.574779 3.077935 -5.304795 -1.600855 7.162172 3.102342 5.234047 -3.386241 -14.031495 -14.272992 -92.876860 -51.343648 137.124727 17.846650 5.670010 10.237265 -8.956494 0.648259 0.148929 1.237428 -8.750242 18.409266 118.056911 -61.240731 -152.157379 4.094554 -0.493859 -13.495006 -5.220140 -10.688724 10.069172 -26.477354 74.524411 -23.985001 1.332315 -13.326867 -2.675907 -0.363585 0.776958 -0.167193 -2.686130 -17.445271 1.219798 12.518228 63.505978 5.984484 -3.001156 -7.688245 0.603179 -0.254047 -0.609132 -0.117185
-66.577222 63.060241 11.961829 163.625212 -49.790268 -2.385988 7.429113 25.759633 4.054512 1.159727 4.398601 0.276540 1.854696 7.000984 0.487070 6.001745 21.049289 2.238188 1.648727 16.349322 -0.543820 3.251524 -5.401115 -1.589700 7.209807 3.080423 5.234117 -3.499918 -14.123885 -14.259278 -92.913045 -50.767348 137.393156 17.451405 5.453423 9.781389 -8.996842 0.554896 0.123777 1.342054 -8.813466 18.395146 115.976980 -60.350299 -150.936049 4.418933 -0.692015 -13.895340 -5.218652 -10.657004 10.072666 -26.478777 74.518915 -23.985727 1.330520 -13.317821 -2.673143 -0.359922 0.767754 -0.166229 -2.688119 -17.415283 1.219153 12.546028 63.503283 6.014129 -3.002381 -7.682608 0.600689 -0.266061 -0.617974 -0.118203
-66.577647 63.062350 11.961753 163.637297 -49.802806 -2.397566 7.420209 25.747402 4.051790 1.159229 4.396807 0.276687 1.857959 7.003477 0.488630 6.001717 21.058109 2.242186 1.749511 16.278660 -0.519474 3.439898 -5.498487 -1.577267 7.244293 3.042605 5.225133 -3.610719 -14.234078 -14.242816 -92.950277 -50.205568 137.651597 17.038875 5.218038 9.311581 -9.034230 0.463459 0.096785 1.442469 -8.917448 18.374601 114.178681 -59.506227 -149.955413 4.797404 -0.892581 -14.319542 -5.214769 -10.639185 10.073614 -26.486995 74.510821 -23.985301 1.330187 -13.324401 -2.675024 -0.358833 0.774763 -0.162787 -2.692877 -17.403978 1.218776 12.556988 63.503847 6.034351 -3.024189 -7.675235 0.595699 -0.260254 -0.626606 -0.118837
-66.578149 63.064339 11.960742 163.648154 -49.818091 -2.406403 7.412535 25.750038 4.050578 1.156631 4.382712 0.273209 1.851899 6.969424 0.481567 6.006100 21.075187 2.250513 1.812983 16.276980 -0.499307 3.691329 -5.640995 -1.567831 7.289730 3.033485 5.223354 -3.730372 -14.348082 -14.219666 -92.968966 -49.657684 137.884015 16.613090 4.963335 8.862733 -9.058853 0.420139 0.069410 1.538914 -9.043231 18.346964 112.656988 -58.707249 -149.199973 5.240176 -1.085139 -14.779211 -5.215568 -10.620766 10.074757 -26.519739 74.503779 -24.018241 1.339272 -13.324128 -2.670678 -0.363073 0.773729 -0.163333 -2.693192 -17.390825 1.215637 12.548031 63.506337 6.035546 -3.024551 -7.664255 0.593504 -0.262335 -0.639772 -0.119599
-66.578393 63.065579 11.959483 163.652908 -49.831507 -2.412178 7.408871 25.750374 4.051082 1.155330 4.370176 0.267676 1.850647 6.965264 0.481611 6.000954 21.061528 2.248324 1.960491 16.209363 -0.458171 3.877263 -5.716440 -1.546708 7.329657 3.037433 5.225188 -3.845580 -14.478125 -14.191223 -92.952114 -49.111173 138.078028 16.194700 4.703612 8.475047 -9.084384 0.376342 0.042012 1.637812 -9.169524 18.316725 111.306137 -57.927506 -148.595068 5.709094 -1.253200 -15.253440 -5.211952 -10.606034 10.079271 -26.564248 74.495991 -24.064746 1.352438 -13.321344 -2.665080 -0.371025 0.771287 -0.163090 -2.695704 -17.376496 1.213355 12.554637 63.504999 6.045215 -3.011715 -7.663929 0.591095 -0.270314 -0.642502 -0.120024
-66.576637 63.067570 11.957272 163.660250 -49.854527 -2.430526 7.408279 25.751008 4.058408 1.157149 4.364944 0.265890 1.850017 6.961052 0.482041 6.001058 21.056036 2.250022 2.110446 16.135136 -0.415919 4.069821 -5.788962 -1.522352 7.345907 3.058152 5.234769 -3.942561 -14.634826 -14.160885 -92.895886 -48.557484 138.242186 15.800708 4.457361 8.173707 -9.115983 0.322365 0.016694 1.740353 -9.296821 18.285127 110.063537 -57.153412 -148.099090 6.194164 -1.374070 -15.719913 -5.212531 -10.581204 10.092404 -26.590236 74.493016 -24.089976 1.358748 -13.309913 -2.662005 -0.377400 0.758970 -0.164514 -2.703501 -17.354409 1.221397 12.585987 63.510276 6.082266 -3.013191 -7.666239 0.583563 -0.252324 -0.648624 -0.117311
-66.575555 63.067868 11.955374 163.663090 -49.869047 -2.442836 7.411099 25.714776 4.049388 1.157089 4.386056 0.277477 1.850204 6.972990 0.488277 6.000331 21.034953 2.245224 2.238345 16.084863 -0.377963 4.295459 -5.879621 -1.499039 7.383330 3.042239 5.243090 -4.075897 -14.756677 -14.116629 -92.813324 -47.999652 138.400418 15.428815 4.231770 7.972788 -9.144775 0.271524 -0.007552 1.839759 -9.431359 18.253511 108.903020 -56.392965 -147.685443 6.704933 -1.444428 -16.169305 -5.213657 -10.565628 10.102149 -26.599990 74.492367 -24.099345 1.360006 -13.303965 -2.663055 -0.379833 0.752600 -0.164710 -2.706234 -17.340714 1.229521 12.595878 63.515333 6.092369 -2.999740 -7.670294 0.588061 -0.250169 -0.651420 -0.120083
